<?xml version="1.0" encoding="UTF-8"?>
<!-- Generator: visioncortex VTracer 0.6.3 -->
<svg version="1.1" xmlns="http://www.w3.org/2000/svg" width="1280" height="329">
<path d="M0 0 C2.01 -0 4.03 -0.01 6.04 -0.01 C11.48 -0.02 16.93 -0.02 22.37 -0.01 C28.09 -0 33.81 -0.01 39.53 -0.01 C49.14 -0.02 58.75 -0.01 68.35 -0 C79.43 0.01 90.5 0.01 101.57 -0.01 C111.11 -0.01 120.64 -0.02 130.18 -0.01 C135.86 -0.01 141.54 -0.01 147.22 -0.01 C152.57 -0.02 157.92 -0.02 163.27 -0 C165.22 -0 167.17 -0 169.12 -0.01 C183.81 -0.04 198.39 0.51 212.71 4.13 C213.97 4.44 215.23 4.75 216.53 5.06 C220.28 6.35 222.98 7.71 226.02 10.26 C228.11 14.81 226.16 19.38 224.83 23.95 C224.36 25.64 223.89 27.33 223.43 29.02 C223.19 29.88 222.96 30.75 222.71 31.64 C221.41 36.57 220.35 41.57 219.28 46.56 C218.64 49.52 217.98 52.38 217.02 55.26 C216.46 55.21 215.9 55.16 215.33 55.11 C170.43 51.16 125.49 50.88 80.45 50.89 C73.84 50.89 67.23 50.86 60.62 50.84 C54.14 50.81 47.67 50.8 41.19 50.8 C37.37 50.8 33.54 50.8 29.72 50.77 C26.15 50.76 22.58 50.76 19.01 50.77 C17.1 50.77 15.19 50.76 13.29 50.74 C3.13 50.81 -8.11 52.45 -16.2 59.16 C-25.5 70.1 -26.13 82.1 -26.13 95.76 C-26.13 97.13 -26.13 98.49 -26.14 99.86 C-26.15 103.55 -26.15 107.25 -26.15 110.94 C-26.15 113.25 -26.15 115.57 -26.15 117.88 C-26.16 125.95 -26.17 134.03 -26.17 142.11 C-26.17 149.62 -26.18 157.13 -26.19 164.64 C-26.21 171.1 -26.21 177.57 -26.21 184.03 C-26.21 187.89 -26.21 191.74 -26.22 195.59 C-26.23 199.22 -26.23 202.85 -26.23 206.47 C-26.22 208.43 -26.23 210.38 -26.24 212.33 C-26.21 221.66 -25.29 229.39 -20.98 237.76 C-20.21 239.29 -20.21 239.29 -19.42 240.85 C-18.21 243.37 -18.21 243.37 -15.98 244.26 C-15.98 244.92 -15.98 245.58 -15.98 246.26 C-14.99 246.41 -14.99 246.41 -13.98 246.57 C-10.82 247.3 -7.95 248.35 -4.95 249.54 C-1.21 250.91 2.06 251.38 6.04 251.39 C7.06 251.39 8.07 251.39 9.12 251.39 C10.22 251.39 11.33 251.39 12.47 251.39 C13.64 251.39 14.81 251.39 16.02 251.39 C19.24 251.4 22.46 251.4 25.68 251.39 C29.08 251.39 32.47 251.39 35.87 251.39 C41.61 251.4 47.34 251.39 53.08 251.39 C59.63 251.38 66.17 251.39 72.72 251.39 C78.39 251.4 84.06 251.4 89.73 251.39 C93.09 251.39 96.46 251.39 99.82 251.4 C115.03 251.41 130.2 251.22 145.39 250.61 C154.63 250.25 163.75 250.26 173.02 250.26 C172.52 216.6 172.52 216.6 172.02 182.26 C152.41 182.08 152.41 182.08 132.96 183.13 C131.9 183.22 130.85 183.31 129.77 183.4 C126.52 183.68 123.27 183.97 120.02 184.26 C95.48 186.44 95.48 186.44 84.52 186.45 C83.76 186.45 83.01 186.45 82.23 186.45 C77.15 186.39 77.15 186.39 76.02 185.26 C75.92 183.8 75.88 182.33 75.87 180.86 C75.87 179.93 75.86 178.99 75.85 178.03 C75.85 176.51 75.85 176.51 75.85 174.95 C75.85 173.91 75.84 172.88 75.84 171.81 C75.84 169.61 75.83 167.41 75.83 165.21 C75.83 161.84 75.81 158.47 75.79 155.09 C75.79 152.96 75.79 150.83 75.79 148.7 C75.78 147.69 75.77 146.67 75.77 145.63 C75.77 144.69 75.77 143.75 75.78 142.78 C75.77 141.96 75.77 141.13 75.77 140.28 C76.02 138.26 76.02 138.26 78.02 136.26 C80.79 136.01 80.79 136.01 84.4 136.01 C85.4 136.01 85.4 136.01 86.41 136 C88.64 136 90.87 136.01 93.1 136.02 C94.7 136.01 96.29 136.01 97.89 136.01 C102.22 136.01 106.56 136.01 110.9 136.02 C115.43 136.03 119.97 136.03 124.5 136.03 C132.11 136.03 139.72 136.04 147.33 136.05 C156.14 136.07 164.95 136.07 173.76 136.07 C182.22 136.07 190.69 136.08 199.15 136.09 C202.76 136.09 206.36 136.09 209.97 136.09 C214.22 136.09 218.46 136.1 222.71 136.11 C224.27 136.11 225.83 136.11 227.39 136.11 C229.52 136.11 231.64 136.12 233.76 136.13 C234.95 136.13 236.14 136.13 237.37 136.13 C240.02 136.26 240.02 136.26 241.02 137.26 C241.12 139.09 241.15 140.92 241.15 142.75 C241.16 144.53 241.16 144.53 241.16 146.36 C241.16 147.68 241.16 149 241.16 150.36 C241.16 151.75 241.17 153.15 241.17 154.54 C241.18 157.55 241.18 160.56 241.19 163.57 C241.19 168.34 241.21 173.1 241.23 177.87 C241.24 179.5 241.24 181.13 241.25 182.76 C241.25 183.58 241.25 184.4 241.26 185.24 C241.3 196.34 241.33 207.44 241.34 218.54 C241.35 226.02 241.38 233.5 241.41 240.98 C241.43 244.94 241.45 248.9 241.44 252.85 C241.44 256.58 241.45 260.31 241.48 264.04 C241.49 266.05 241.48 268.06 241.47 270.08 C241.54 276.62 242 281.68 245.14 287.49 C246.29 289.8 246.35 291.72 246.02 294.26 C228.62 301.48 208.59 301.45 190.03 301.92 C188.84 301.95 187.64 301.98 186.41 302.01 C185.35 302.04 184.29 302.06 183.19 302.09 C180 302.21 180 302.21 176.8 302.76 C172.94 303.27 169.18 303.4 165.29 303.39 C164.54 303.39 163.79 303.39 163.02 303.39 C160.54 303.39 158.05 303.39 155.56 303.39 C153.78 303.39 151.99 303.39 150.2 303.39 C145.35 303.4 140.5 303.4 135.66 303.39 C130.58 303.39 125.51 303.39 120.44 303.39 C111.92 303.4 103.41 303.39 94.9 303.39 C85.05 303.38 75.2 303.39 65.35 303.39 C56.89 303.4 48.44 303.4 39.98 303.39 C34.93 303.39 29.88 303.39 24.83 303.4 C20.08 303.4 15.34 303.4 10.6 303.39 C8.85 303.39 7.11 303.39 5.36 303.39 C2.99 303.39 0.62 303.39 -1.76 303.39 C-2.45 303.39 -3.15 303.39 -3.86 303.39 C-6.86 303.38 -9.11 303.21 -11.98 302.26 C-14.21 302.1 -16.44 301.98 -18.67 301.88 C-40.96 300.57 -61.35 294.42 -77.36 278.13 C-96.11 255.47 -95.45 225.39 -95.38 197.67 C-95.38 193.57 -95.38 189.48 -95.39 185.39 C-95.39 178.52 -95.39 171.65 -95.37 164.78 C-95.36 156.89 -95.36 149.01 -95.38 141.12 C-95.39 134.29 -95.39 127.46 -95.39 120.63 C-95.38 116.57 -95.38 112.52 -95.39 108.47 C-95.46 76.63 -93.91 45.81 -70.98 21.26 C-68.48 18.92 -65.88 17.08 -62.98 15.26 C-62 14.61 -61.01 13.96 -60 13.3 C-50.8 7.6 -41.51 4.6 -30.98 2.26 C-30.27 2.08 -29.57 1.91 -28.84 1.73 C-19.3 -0.34 -9.7 -0.02 0 0 Z M-27.98 79.26 C-26.98 82.26 -26.98 82.26 -26.98 82.26 Z M126.02 252.26 C130.02 253.26 130.02 253.26 130.02 253.26 Z " fill="#3A2B9A" transform="translate(94.98095703125,25.7412109375)"/>
<path d="M0 0 C1.04 0 2.08 0 3.14 0 C4.32 0 5.49 -0 6.7 -0.01 C7.98 0 9.25 0.01 10.56 0.02 C12.52 0.02 12.52 0.02 14.51 0.02 C17.27 0.02 20.02 0.03 22.78 0.04 C26.32 0.06 29.86 0.06 33.39 0.06 C36.76 0.06 40.13 0.07 43.5 0.08 C45.41 0.08 45.41 0.08 47.36 0.08 C48.54 0.09 49.71 0.1 50.92 0.1 C52.48 0.11 52.48 0.11 54.07 0.11 C56.53 0.25 56.53 0.25 58.53 1.25 C58.86 33.92 59.19 66.59 59.53 100.25 C65.47 99.75 65.47 99.75 71.53 99.25 C77.09 98.8 82.64 98.37 88.2 97.94 C89.89 97.82 91.57 97.68 93.26 97.55 C121.31 95.32 149.41 95.08 177.53 95.12 C181.6 95.12 185.67 95.12 189.73 95.11 C192.93 95.11 196.13 95.11 199.33 95.11 C200.83 95.11 202.33 95.11 203.83 95.11 C223.94 95.09 242.52 96.45 258.17 110.64 C274.54 127.84 273 149.99 272.94 172.23 C272.93 175.87 272.94 179.51 272.94 183.15 C272.95 189.25 272.94 195.35 272.92 201.45 C272.91 208.47 272.91 215.48 272.93 222.5 C272.94 228.57 272.95 234.64 272.94 240.71 C272.93 244.31 272.93 247.91 272.94 251.52 C273.04 294.06 273.04 294.06 258.03 310.62 C246.97 320.99 232.95 324.16 218.26 325 C215.57 325.08 215.57 325.08 213.53 326.25 C211.8 326.34 210.07 326.38 208.34 326.38 C207.25 326.38 206.17 326.38 205.05 326.39 C203.87 326.38 202.7 326.38 201.48 326.38 C200.28 326.38 199.07 326.38 197.83 326.38 C195.27 326.38 192.71 326.38 190.16 326.38 C186.25 326.37 182.34 326.38 178.43 326.38 C175.94 326.38 173.46 326.38 170.98 326.38 C169.81 326.38 168.64 326.38 167.43 326.39 C166.34 326.38 165.25 326.38 164.12 326.38 C163.16 326.38 162.2 326.38 161.21 326.37 C158.55 326.25 156.13 325.8 153.53 325.25 C151.25 325.13 148.97 325.07 146.68 325.04 C145.28 325.01 143.88 324.98 142.48 324.96 C141.73 324.94 140.99 324.93 140.23 324.92 C125.11 324.63 110.05 323.88 94.97 322.81 C94.09 322.75 93.2 322.69 92.29 322.62 C84.59 322.08 76.89 321.53 69.21 320.67 C68.35 320.57 67.48 320.48 66.59 320.38 C64.96 320.19 63.32 319.99 61.69 319.79 C54.93 319.01 51.3 319.68 45.61 323.29 C36.39 328.02 26.39 326.89 16.28 326.62 C14.27 326.59 12.25 326.56 10.23 326.54 C5.33 326.47 0.43 326.37 -4.47 326.25 C-4.51 285.01 -4.55 243.76 -4.57 202.52 C-4.57 197.66 -4.57 192.79 -4.58 187.93 C-4.58 186.96 -4.58 185.99 -4.58 184.99 C-4.59 169.3 -4.6 153.6 -4.62 137.9 C-4.64 121.8 -4.65 105.7 -4.66 89.6 C-4.66 79.66 -4.67 69.72 -4.68 59.78 C-4.69 52.97 -4.7 46.16 -4.69 39.36 C-4.69 35.42 -4.69 31.49 -4.71 27.56 C-4.72 23.96 -4.72 20.36 -4.71 16.77 C-4.71 14.84 -4.72 12.91 -4.73 10.99 C-4.72 9.85 -4.72 8.72 -4.71 7.55 C-4.71 6.57 -4.71 5.59 -4.72 4.57 C-4.35 1.2 -3.35 0.34 0 0 Z M87.37 141.14 C86.13 141.22 84.9 141.29 83.63 141.37 C70.12 141.42 70.12 141.42 58.53 146.25 C58.23 148.54 58.23 148.54 58.28 151.23 C58.27 152.29 58.27 153.34 58.26 154.43 C58.27 155.59 58.27 156.75 58.27 157.95 C58.27 159.17 58.27 160.38 58.26 161.64 C58.26 164.99 58.26 168.34 58.26 171.7 C58.27 175.2 58.26 178.71 58.26 182.22 C58.26 188.11 58.26 194.01 58.27 199.9 C58.28 206.71 58.28 213.52 58.27 220.33 C58.26 226.17 58.26 232.02 58.26 237.87 C58.27 241.36 58.27 244.85 58.26 248.34 C58.25 252.24 58.26 256.13 58.27 260.03 C58.27 261.18 58.27 262.34 58.26 263.53 C58.19 271.13 58.19 271.13 60.53 278.25 C63.69 280.3 66.26 280.5 69.97 280.51 C71.08 280.52 72.18 280.53 73.32 280.54 C74.53 280.54 75.73 280.54 76.98 280.54 C78.25 280.54 79.53 280.55 80.84 280.56 C84.34 280.58 87.83 280.58 91.33 280.58 C93.52 280.58 95.7 280.59 97.89 280.59 C105.52 280.61 113.16 280.62 120.79 280.62 C127.9 280.62 135 280.64 142.11 280.67 C148.21 280.7 154.32 280.71 160.43 280.7 C164.08 280.7 167.72 280.71 171.36 280.73 C175.43 280.75 179.5 280.75 183.57 280.73 C184.77 280.74 185.97 280.76 187.21 280.77 C194.13 280.72 198.66 279.99 204.53 276.25 C208.78 271.89 209.65 268.42 209.67 262.49 C209.68 261.54 209.68 260.59 209.69 259.6 C209.69 258.56 209.69 257.53 209.69 256.46 C209.7 255.36 209.7 254.26 209.71 253.12 C209.72 249.48 209.73 245.84 209.74 242.2 C209.74 239.67 209.75 237.14 209.75 234.61 C209.76 229.98 209.77 225.35 209.77 220.71 C209.78 213.91 209.79 207.11 209.82 200.31 C209.85 194.41 209.85 188.5 209.86 182.6 C209.86 180.09 209.87 177.59 209.88 175.08 C209.9 171.57 209.9 168.07 209.89 164.56 C209.9 163.01 209.9 163.01 209.92 161.43 C209.88 154.89 209.55 148.27 204.66 143.37 C199.37 140.57 194.98 139.96 189.03 139.99 C188.18 139.98 187.33 139.98 186.46 139.98 C183.66 139.97 180.85 139.97 178.04 139.98 C176.07 139.98 174.09 139.98 172.11 139.98 C167.94 139.97 163.77 139.98 159.61 139.99 C154.37 140 149.13 139.99 143.88 139.98 C125.03 139.94 106.19 139.95 87.37 141.14 Z " fill="#3A2B9A" transform="translate(1005.4669189453125,2.7527618408203125)"/>
<path d="M0 0 C6.57 0.01 13.13 0 19.7 -0 C24.84 -0.01 29.99 -0.01 35.13 -0 C37.56 -0 39.98 -0 42.41 -0.01 C45.76 -0.01 49.12 -0 52.47 0 C53.44 -0 54.41 -0 55.41 -0.01 C64.68 0.02 73.81 0.4 82.68 3.26 C83.36 3.47 84.05 3.69 84.75 3.92 C90.85 6 95.73 8.92 100.62 13.13 C101.4 13.78 102.18 14.42 102.98 15.09 C115.07 26.02 118.65 40.45 119.62 56.13 C119.75 61.9 119.75 67.67 119.73 73.44 C119.73 75.17 119.73 76.9 119.73 78.62 C119.73 83.27 119.73 87.93 119.72 92.58 C119.71 97.46 119.71 102.33 119.71 107.21 C119.71 116.43 119.7 125.65 119.69 134.86 C119.68 145.37 119.67 155.87 119.67 166.37 C119.66 187.95 119.64 209.54 119.62 231.13 C105.43 231.13 91.24 231.13 76.62 231.13 C76.62 230.47 76.62 229.81 76.62 229.13 C75.31 228.73 75.31 228.73 73.98 228.33 C69.68 226.8 65.94 224.57 62.01 222.27 C57.26 220.67 53.5 221.37 48.62 222.13 C47.63 222.27 46.65 222.41 45.63 222.55 C43.45 222.86 41.28 223.17 39.11 223.49 C15.28 226.96 -8.59 229.26 -32.67 229.84 C-34.28 229.88 -34.28 229.88 -35.93 229.92 C-36.87 229.94 -37.8 229.95 -38.77 229.97 C-41.35 230.06 -41.35 230.06 -43.73 230.63 C-46.36 231.13 -48.73 231.26 -51.4 231.26 C-52.37 231.26 -53.34 231.27 -54.34 231.27 C-55.38 231.27 -56.42 231.27 -57.48 231.26 C-59.09 231.26 -59.09 231.26 -60.74 231.27 C-63 231.27 -65.26 231.26 -67.53 231.26 C-71 231.26 -74.47 231.26 -77.94 231.27 C-80.14 231.27 -82.35 231.27 -84.55 231.26 C-85.59 231.27 -86.63 231.27 -87.7 231.27 C-88.66 231.27 -89.63 231.26 -90.62 231.26 C-91.47 231.26 -92.32 231.26 -93.19 231.26 C-95.38 231.13 -95.38 231.13 -98.38 230.13 C-100.18 229.9 -101.98 229.68 -103.78 229.48 C-123.53 227.33 -139.27 220.72 -152.08 204.92 C-161.2 192.38 -163.56 178.05 -163.57 162.88 C-163.58 161.91 -163.59 160.93 -163.61 159.93 C-163.64 141.47 -158.06 124.11 -145.44 110.38 C-128.76 94.56 -106.04 91.96 -84.01 92 C-82.28 92 -82.28 92 -80.52 91.99 C-76.81 91.99 -73.09 92 -69.38 92.01 C-68.11 92.01 -66.83 92.01 -65.51 92.01 C-36.78 92.06 -8.24 92.7 20.43 94.57 C21.86 94.66 21.86 94.66 23.32 94.75 C34.49 95.49 45.55 96.46 56.62 98.13 C56.57 92.6 56.5 87.07 56.41 81.53 C56.38 79.66 56.36 77.78 56.35 75.9 C56.33 73.19 56.28 70.47 56.23 67.76 C56.23 66.52 56.23 66.52 56.22 65.25 C56.08 59.53 55.28 53.71 51.62 49.13 C45.81 45.76 40.58 45.71 33.98 45.76 C32.93 45.75 31.88 45.75 30.79 45.75 C27.32 45.74 23.84 45.75 20.37 45.77 C17.92 45.77 15.46 45.77 13.01 45.77 C7.85 45.77 2.69 45.78 -2.47 45.79 C-8.97 45.82 -15.46 45.82 -21.95 45.81 C-50.82 45.79 -79.58 46.17 -108.38 48.13 C-109.47 48.2 -109.47 48.2 -110.59 48.28 C-119.19 48.86 -127.79 49.46 -136.38 50.13 C-139.61 45.7 -140.02 41.86 -140.44 36.57 C-140.6 34.96 -140.75 33.35 -140.91 31.74 C-140.99 30.95 -141.06 30.17 -141.14 29.36 C-141.57 25.44 -142.28 21.58 -143.01 17.71 C-143.43 14.78 -143.58 12.08 -143.38 9.13 C-141.19 7.38 -141.19 7.38 -138.38 6.13 C-137.72 5.81 -137.05 5.48 -136.36 5.15 C-119.89 -0.48 -99.88 0.82 -82.67 0.55 C-81.54 0.53 -80.4 0.51 -79.24 0.49 C-52.82 0.03 -26.41 -0.02 0 0 Z M-53.38 1.13 C-53.38 1.46 -53.38 1.79 -53.38 2.13 C-51.4 2.13 -49.42 2.13 -47.38 2.13 C-47.38 1.8 -47.38 1.47 -47.38 1.13 C-49.36 1.13 -51.34 1.13 -53.38 1.13 Z M-96.38 140.19 C-101.88 149.09 -101.28 161.99 -99.05 171.81 C-97.81 176.12 -96.18 178.9 -92.43 181.46 C-85.14 185.48 -78.85 185.84 -70.63 185.76 C-69.27 185.77 -67.91 185.77 -66.56 185.78 C-62.9 185.8 -59.25 185.79 -55.6 185.77 C-51.77 185.75 -47.94 185.76 -44.11 185.77 C-37.68 185.77 -31.26 185.76 -24.83 185.73 C-17.4 185.7 -9.98 185.7 -2.55 185.71 C4.61 185.73 11.76 185.72 18.92 185.7 C21.96 185.7 25.01 185.7 28.05 185.71 C31.63 185.71 35.2 185.7 38.78 185.67 C40.72 185.66 42.66 185.67 44.6 185.68 C45.75 185.67 46.9 185.66 48.09 185.65 C49.59 185.64 49.59 185.64 51.12 185.64 C53.75 185.35 53.75 185.35 55.44 183.24 C56.84 180.72 56.99 179.16 56.97 176.29 C56.98 175.33 56.98 174.37 56.98 173.38 C56.97 172.36 56.96 171.33 56.95 170.27 C56.94 168.69 56.94 168.69 56.94 167.07 C56.93 164.84 56.92 162.61 56.9 160.38 C56.87 156.95 56.86 153.52 56.85 150.09 C56.84 147.92 56.83 145.75 56.82 143.59 C56.81 142.04 56.81 142.04 56.81 140.46 C56.8 139.51 56.79 138.56 56.78 137.59 C56.77 136.75 56.77 135.91 56.76 135.05 C56.83 133.12 56.83 133.12 55.62 132.13 C53.84 132.02 52.07 131.99 50.29 131.98 C49.13 131.97 47.98 131.96 46.78 131.95 C45.5 131.95 44.22 131.94 42.9 131.94 C41.55 131.93 40.2 131.92 38.84 131.91 C34.38 131.89 29.93 131.87 25.47 131.86 C23.93 131.85 22.39 131.85 20.86 131.84 C14.47 131.82 8.08 131.8 1.68 131.79 C-7.47 131.77 -16.62 131.74 -25.77 131.68 C-32.21 131.64 -38.65 131.62 -45.09 131.62 C-48.93 131.62 -52.77 131.6 -56.61 131.57 C-60.24 131.54 -63.86 131.53 -67.48 131.55 C-69.43 131.55 -71.38 131.52 -73.33 131.5 C-82.31 131.56 -90.22 133.18 -96.38 140.19 Z " fill="#3A2B9A" transform="translate(558.3818359375,97.86962890625)"/>
<path d="M0 0 C8.57 -0.02 17.14 -0.04 25.71 -0.05 C29.69 -0.06 33.67 -0.06 37.65 -0.08 C41.49 -0.09 45.33 -0.09 49.17 -0.09 C50.63 -0.1 52.1 -0.1 53.57 -0.11 C55.62 -0.11 57.66 -0.11 59.71 -0.11 C61.47 -0.12 61.47 -0.12 63.25 -0.12 C66 0 66 0 68 1 C68 108.25 68 215.5 68 326 C46.88 326 25.76 326 4 326 C3.98 317.18 3.96 308.36 3.94 299.27 C3.88 271 3.8 242.73 3.72 214.46 C3.71 210.06 3.69 205.66 3.68 201.27 C3.68 200.39 3.68 199.52 3.68 198.62 C3.64 184.47 3.6 170.33 3.57 156.18 C3.54 141.66 3.5 127.13 3.46 112.6 C3.43 103.65 3.41 94.69 3.39 85.74 C3.38 79.59 3.36 73.43 3.34 67.28 C3.33 63.74 3.32 60.2 3.32 56.66 C3.31 42.92 3.06 29.59 1 16 C0.71 13 0.54 10.01 0.38 7 C0.34 6.31 0.3 5.62 0.26 4.91 C0.17 3.27 0.08 1.64 0 0 Z " fill="#3A2B9B" transform="translate(737,3)"/>
<path d="M0 0 C1.04 0 2.08 0 3.14 0 C4.32 0 5.49 -0 6.7 -0.01 C7.98 0 9.25 0.01 10.56 0.02 C12.52 0.02 12.52 0.02 14.51 0.02 C17.27 0.02 20.02 0.03 22.78 0.04 C26.32 0.06 29.86 0.06 33.39 0.06 C36.76 0.06 40.13 0.07 43.5 0.08 C45.41 0.08 45.41 0.08 47.36 0.08 C48.54 0.09 49.71 0.1 50.92 0.1 C52.48 0.11 52.48 0.11 54.07 0.11 C56.53 0.25 56.53 0.25 58.53 1.25 C58.53 77.15 58.53 153.05 58.53 231.25 C37.74 231.25 16.95 231.25 -4.47 231.25 C-4.51 202.11 -4.55 172.97 -4.57 143.83 C-4.57 140.39 -4.57 136.96 -4.58 133.52 C-4.58 132.49 -4.58 132.49 -4.58 131.44 C-4.59 120.35 -4.6 109.26 -4.62 98.17 C-4.64 86.79 -4.65 75.42 -4.66 64.04 C-4.66 57.65 -4.66 51.26 -4.68 44.87 C-4.69 38.86 -4.7 32.85 -4.69 26.84 C-4.69 24.63 -4.7 22.42 -4.71 20.2 C-4.72 17.2 -4.71 14.19 -4.71 11.18 C-4.71 10.3 -4.72 9.41 -4.73 8.5 C-4.69 0.47 -4.69 0.47 0 0 Z " fill="#3A2B9B" transform="translate(875.4669189453125,97.75276184082031)"/>
<path d="M0 0 C1.26 -0.02 2.52 -0.04 3.81 -0.06 C12.72 -0.06 19.86 1.04 27.18 6.33 C35.9 15.54 36.82 24.52 36.65 36.74 C36.38 45.11 35.64 52.03 29.73 58.42 C19.32 68.06 5.44 66.96 -7.95 66.58 C-17.51 66.04 -25 63.23 -31.62 56.25 C-36.89 49.67 -37.96 42.22 -37.81 34 C-37.8 32.75 -37.8 32.75 -37.78 31.48 C-37.53 21.86 -35.94 15.29 -29.25 8.13 C-20.67 0.13 -11.35 -0.06 0 0 Z " fill="#3A2B9A" transform="translate(903.4375,-0.4375)"/>
</svg>
